<?xml version="1.0" standalone="no"?>
<!DOCTYPE svg PUBLIC "-//W3C//DTD SVG 20010904//EN"
 "http://www.w3.org/TR/2001/REC-SVG-20010904/DTD/svg10.dtd">
<svg version="1.0" xmlns="http://www.w3.org/2000/svg"
 width="300.000000pt" height="272.000000pt" viewBox="0 0 300.000000 272.000000"
 preserveAspectRatio="xMidYMid meet">
<metadata>
Created by potrace 1.10, written by Peter Selinger 2001-2011
</metadata>
<g transform="translate(0.000000,272.000000) scale(0.100000,-0.100000)"
fill="#000000" stroke="none">
<path d="M1142 2226 l-343 -344 2 217 2 216 -64 0 -64 0 -10 -287 -10 -288
-240 -240 -239 -239 22 -24 22 -23 632 633 633 633 632 -632 633 -633 22 23
23 22 -655 655 -655 655 -343 -344z m-376 -135 c2 -172 3 -185 24 -213 l22
-30 -45 -44 c-25 -24 -53 -44 -62 -44 -15 0 -16 7 -11 53 3 28 6 131 7 227 0
96 3 190 6 208 5 29 9 33 32 30 l26 -3 1 -184z"/>
<path d="M1270 1765 l0 -95 105 0 105 0 0 95 0 95 -105 0 -105 0 0 -95z m168
43 c7 -7 12 -31 12 -55 l0 -43 -70 0 -70 0 0 48 c0 27 3 52 7 55 11 12 108 8
121 -5z"/>
<path d="M1510 1765 l0 -95 105 0 105 0 0 95 0 95 -105 0 -105 0 0 -95z m168
-1 l3 -52 -36 -6 c-19 -4 -50 -4 -68 -1 -29 6 -33 10 -35 42 -5 67 2 74 71 71
l62 -3 3 -51z"/>
<path d="M1270 1560 l0 -80 105 0 105 0 0 80 0 80 -105 0 -105 0 0 -80z m173
29 c5 -9 7 -28 3 -42 -6 -26 -9 -27 -71 -27 l-65 0 0 38 c0 21 3 42 7 46 14
14 115 2 126 -15z"/>
<path d="M1510 1560 l0 -80 105 0 105 0 0 80 0 80 -105 0 -105 0 0 -80z m168
3 l-3 -47 -44 -2 c-78 -3 -101 16 -87 72 6 22 11 24 72 24 l65 0 -3 -47z"/>
<path d="M1735 1091 c-213 -52 -240 -340 -40 -432 104 -48 232 -1 287 104 33
63 32 158 -4 218 -30 51 -84 92 -143 108 -44 12 -56 12 -100 2z m140 -41 c117
-72 103 -324 -21 -376 -87 -36 -178 -3 -219 80 -44 89 -28 225 33 279 54 48
145 56 207 17z"/>
<path d="M130 1079 c0 -4 9 -9 20 -12 20 -5 20 -12 18 -198 l-3 -193 -25 -13
c-21 -11 -5 -13 109 -11 l135 3 8 34 c11 40 2 54 -11 19 -5 -14 -17 -28 -26
-32 -31 -11 -112 -6 -124 8 -8 9 -11 69 -9 192 l3 178 25 13 c14 7 23 13 20
13 -33 5 -140 3 -140 -1z"/>
<path d="M424 1081 c-2 -2 6 -9 19 -15 22 -11 22 -15 22 -201 l0 -189 -25 -14
c-22 -11 -6 -12 116 -10 135 3 142 4 183 31 109 72 129 217 44 317 -53 61 -88
73 -231 80 -68 3 -126 3 -128 1z m255 -36 c70 -36 105 -112 99 -211 -4 -68
-21 -100 -71 -138 -28 -21 -117 -33 -162 -22 l-25 6 0 190 0 190 65 0 c38 0
78 -6 94 -15z"/>
<path d="M1080 1080 c0 -3 10 -10 23 -15 21 -10 22 -15 25 -180 1 -93 0 -179
-2 -191 -3 -11 -16 -26 -28 -32 -19 -9 -10 -11 52 -11 61 0 71 2 55 11 -32 18
-35 28 -35 121 l0 87 125 0 125 0 0 -87 c0 -93 -3 -103 -35 -121 -16 -9 -6
-11 55 -11 72 0 74 0 47 15 l-27 15 2 187 3 186 25 13 c14 7 23 13 20 13 -45
5 -140 3 -140 -2 0 -5 7 -8 15 -8 24 0 35 -35 35 -109 l0 -71 -125 0 -125 0 0
71 c0 74 11 109 35 109 8 0 15 3 15 8 0 4 -31 7 -70 7 -38 0 -70 -2 -70 -5z"/>
<path d="M2055 1082 c-3 -3 9 -11 27 -17 26 -8 33 -15 31 -35 0 -14 -4 -95 -9
-179 -6 -143 -9 -157 -30 -178 l-23 -23 57 1 c48 0 54 2 35 11 -21 10 -23 18
-23 102 0 50 3 128 7 174 l6 83 64 -173 c35 -95 66 -180 69 -188 5 -14 48 87
115 270 17 47 35 89 39 93 8 9 20 -319 13 -339 -2 -6 -14 -16 -26 -22 -18 -9
-7 -11 53 -11 61 0 71 2 53 11 -29 14 -32 35 -35 238 -3 165 -3 165 20 168 41
6 15 17 -32 14 l-45 -4 -59 -151 c-33 -84 -62 -161 -66 -172 -6 -15 -24 22
-71 148 -35 93 -65 170 -67 171 -7 7 -98 13 -103 8z"/>
<path d="M2563 1078 c-2 -5 5 -8 16 -8 29 0 32 -21 29 -220 l-3 -174 -25 -13
c-21 -11 -5 -13 109 -11 l135 3 7 29 c8 29 1 53 -8 28 -12 -33 -36 -43 -97
-40 l-61 3 -3 93 -3 93 58 -3 c50 -3 59 -6 70 -28 12 -23 13 -20 12 35 0 44
-3 54 -9 38 -7 -18 -18 -22 -69 -25 l-61 -3 0 96 0 96 58 -4 c74 -6 81 -8 92
-35 8 -20 9 -19 9 14 l1 37 -126 3 c-69 2 -128 0 -131 -4z"/>
<path d="M820 545 c8 -10 11 -40 8 -88 -2 -55 0 -74 9 -74 10 0 13 23 13 84 0
84 6 96 34 67 21 -20 20 -30 -2 -52 -20 -20 -23 -14 39 -90 24 -29 20 0 -4 37
-23 34 -24 41 -12 51 38 31 -2 80 -63 80 -29 0 -33 -2 -22 -15z"/>
<path d="M975 472 l0 -87 41 -3 c30 -2 43 2 48 13 4 13 2 14 -14 5 -36 -19
-50 -12 -50 26 0 35 1 36 30 32 20 -3 30 0 30 8 0 10 -9 12 -30 8 -29 -6 -30
-6 -30 35 0 33 4 41 18 41 10 0 23 -5 30 -12 9 -9 12 -8 12 5 0 13 -9 17 -42
17 l-43 0 0 -88z"/>
<path d="M1121 506 c-12 -31 -21 -60 -21 -64 0 -4 -7 -19 -14 -34 -14 -26 -13
-28 4 -28 13 0 19 6 18 18 -3 43 2 52 32 52 23 0 33 -6 39 -22 5 -13 5 -28 -1
-34 -6 -9 -1 -11 17 -10 27 1 30 6 16 22 -5 5 -19 38 -32 74 -12 36 -26 69
-30 73 -4 5 -16 -16 -28 -47z m33 -8 c9 -35 8 -38 -15 -38 -15 0 -19 4 -15 16
3 9 6 22 6 30 0 22 17 16 24 -8z"/>
<path d="M1240 545 c7 -9 10 -40 8 -85 l-3 -70 32 -6 c40 -8 63 0 63 21 0 15
-1 15 -16 0 -9 -9 -24 -15 -33 -13 -13 3 -16 18 -16 86 0 80 -1 82 -24 82 -19
0 -21 -3 -11 -15z"/>
<path d="M1435 472 l0 -87 43 -3 c30 -2 44 1 48 12 5 14 8 14 21 1 17 -18 55
-19 71 -3 23 23 14 57 -23 80 -22 15 -35 31 -35 44 0 29 28 39 51 18 17 -16
19 -16 19 -1 0 9 -11 19 -25 23 -48 12 -86 -48 -49 -78 56 -45 66 -59 54 -73
-17 -20 -47 -19 -58 1 -9 16 -11 16 -33 0 -40 -28 -59 -21 -59 20 0 35 1 36
30 32 20 -3 30 0 30 8 0 10 -9 12 -30 8 -30 -6 -30 -6 -30 36 0 42 0 42 30 37
17 -4 30 -2 30 3 0 6 -19 10 -42 10 l-43 0 0 -88z"/>
<path d="M1640 543 c0 -13 3 -14 12 -5 7 7 20 12 31 12 17 0 18 -7 15 -83 -2
-68 0 -83 12 -83 12 0 14 15 11 83 l-3 83 25 0 c15 0 31 -8 36 -17 9 -16 10
-16 11 5 0 21 -4 22 -75 22 -64 0 -75 -3 -75 -17z"/>
<path d="M1847 553 c-2 -4 -14 -38 -26 -75 -13 -37 -27 -70 -32 -73 -16 -11
-10 -25 12 -25 12 0 17 4 14 11 -4 5 -4 21 -1 35 5 19 13 24 36 24 23 0 31 -5
36 -24 3 -14 4 -28 1 -33 -3 -4 6 -8 19 -8 13 0 24 3 24 8 0 4 -3 7 -8 7 -4 0
-18 33 -31 73 -26 76 -36 94 -44 80z m18 -70 c5 -19 2 -23 -14 -23 -23 0 -24
3 -15 38 7 26 18 20 29 -15z"/>
<path d="M1920 538 c1 -21 2 -21 11 -5 5 9 19 17 29 17 18 0 20 -7 20 -83 0
-60 4 -84 13 -84 8 0 12 23 12 81 0 72 2 81 19 84 11 2 26 -4 33 -14 12 -17
13 -16 13 4 0 21 -4 22 -75 22 -71 0 -75 -1 -75 -22z"/>
<path d="M2088 475 c3 -80 5 -85 27 -91 32 -8 57 -2 63 14 3 11 0 12 -18 2
-31 -17 -50 -6 -50 31 0 29 2 31 30 27 25 -4 30 -1 30 16 0 15 -3 17 -12 8 -7
-7 -20 -12 -30 -12 -14 0 -18 8 -18 40 0 35 3 40 23 40 13 0 29 -6 36 -12 11
-11 13 -10 9 2 -3 10 -20 16 -49 18 l-44 3 3 -86z"/>
<path d="M360 390 l0 -140 1114 0 1115 0 3 135 c3 134 3 135 -19 135 -23 0
-23 -2 -23 -115 l0 -115 -1075 0 -1075 0 0 120 c0 113 -1 120 -20 120 -19 0
-20 -7 -20 -140z"/>
</g>
</svg>
